<?xml version="1.0" encoding="UTF-8"?>
<svg id="Layer_1" data-name="Layer 1" xmlns="http://www.w3.org/2000/svg" viewBox="0 0 270 162">
  <defs>
    <style>
      .cls-1 {
        fill: #70488b;
      }

      .cls-2 {
        fill: #fff;
      }
    </style>
  </defs>
  <rect class="cls-2" x="-9" y="-9" width="288" height="180"/>
  <rect class="cls-1" x="-10.5" y="94.82" width="288" height="26.89"/>
  <path class="cls-1" d="M221.01,45.24l.02-22.47h-71.98s-13.49,4.49-13.49,4.49l-13.49-4.5H50.09s0,22.49,0,22.49l-4.5,9,4.5,9.01v22.49h71.95l13.51-4.52,13.49,4.52h71.97v-22.5s4.52-9,4.52-9l-4.52-9.01ZM54.59,55.43c-.65,0-1.17-.53-1.17-1.17,0-.65.53-1.17,1.17-1.17.65,0,1.17.53,1.17,1.17,0,.65-.53,1.17-1.17,1.17ZM86.43,69.82h-4.64l-1.89-3.29-1.89,3.29h-13.39v-31.55h13.39l1.89,3.29,1.89-3.29h3.97v5.68h-11.76v6.99h6.08v5.68h-6.08v7.53h12.44v5.68ZM113.21,69.82l-3.65-3.29-.13,3.29h-2.88l-5.41-10.23-5.5,10.23h-1.22l-.14-3.29-3.65,3.29h-1.71l9.15-16-8.25-15.55h3.43l3.65,3.29.14-3.29h2.88l4.55,8.56,4.6-8.56h1.22l.14,3.29,3.65-3.29h1.71l-8.29,14.24,9.19,17.31h-3.47ZM149.58,69.82h-2.61l-1.89-3.29-1.89,3.29h-2.61v-21l-5.81,21h-2.84l-5.72-21v21l-1.26.05-1.89-3.29-1.89,3.29-1.26-.05v-31.55h3.83l1.89,3.29,1.89-3.29h3.79l3.88,11.18,3.83-11.18h4.19l1.89,3.29,1.89-3.29h2.61v31.55ZM176.25,69.82h-4.64l-1.89-3.29-1.89,3.29h-13.39v-31.55h13.39l1.89,3.29,1.89-3.29h3.97v5.68h-11.76v6.99h6.08v5.68h-6.08v7.53h12.44v5.68ZM203.03,69.82l-3.65-3.29-.13,3.29h-2.88l-5.41-10.23-5.5,10.23h-1.22l-.14-3.29-3.65,3.29h-1.71l9.15-16-8.25-15.55h3.43l3.65,3.29.14-3.29h2.88l4.55,8.56,4.6-8.56h1.22l.14,3.29,3.65-3.29h1.71l-8.29,14.24,9.19,17.31h-3.47ZM216.53,55.42c-.65,0-1.17-.53-1.17-1.17,0-.65.53-1.17,1.17-1.17.65,0,1.17.53,1.17,1.17,0,.65-.53,1.17-1.17,1.17Z"/>
  <g>
    <path class="cls-2" d="M26.89,113.94c-.82,0-1.45-.16-1.89-.49-.44-.33-.74-.79-.9-1.38s-.24-1.29-.24-2.08v-7.52h1.51v7.59c0,.49.03.93.1,1.33.06.4.21.72.43.95s.55.35.99.35.78-.12.99-.35c.21-.23.35-.55.42-.95.06-.4.1-.84.1-1.33v-7.59h1.5v7.52c0,.79-.08,1.49-.24,2.08s-.46,1.05-.89,1.38c-.43.33-1.06.49-1.88.49Z"/>
    <path class="cls-2" d="M34.24,113.94c-.65,0-1.2-.14-1.63-.42-.43-.28-.76-.67-.99-1.16-.22-.49-.35-1.07-.39-1.72l1.4-.38c.03.4.09.79.19,1.16.1.37.26.68.48.92.22.24.54.36.94.36s.72-.11.93-.34.31-.56.31-.99c0-.51-.12-.93-.35-1.24-.23-.31-.53-.63-.88-.94l-1.9-1.68c-.37-.33-.65-.68-.83-1.07-.18-.39-.27-.87-.27-1.44,0-.83.24-1.47.71-1.93s1.12-.69,1.95-.69c.45,0,.84.06,1.18.18.34.12.62.3.85.54.23.24.41.55.55.92.14.37.23.8.27,1.29l-1.34.36c-.03-.37-.08-.72-.17-1.03s-.23-.56-.44-.76c-.21-.19-.51-.29-.9-.29s-.7.1-.92.31-.33.52-.33.93c0,.34.06.63.18.85s.31.45.57.69l1.92,1.68c.43.37.81.82,1.13,1.34.33.52.49,1.13.49,1.84,0,.56-.12,1.04-.35,1.45s-.55.72-.96.93c-.41.21-.88.32-1.41.32Z"/>
    <path class="cls-2" d="M38.19,113.82v-11.34h4.4v1.18h-2.81v3.75h2.28v1.12h-2.28v4.16h2.84v1.13h-4.42Z"/>
    <path class="cls-2" d="M49.94,113.94c-.8,0-1.43-.17-1.87-.5s-.75-.79-.92-1.36c-.17-.57-.26-1.2-.26-1.9v-4c0-.77.09-1.43.26-2,.17-.57.48-1.01.92-1.32s1.07-.47,1.87-.47c.71,0,1.27.13,1.69.39.42.26.71.63.9,1.12.18.49.27,1.07.27,1.75v.9h-1.5v-.8c0-.42-.02-.79-.06-1.11-.04-.32-.16-.57-.34-.75-.19-.18-.5-.27-.94-.27s-.77.1-.98.29c-.21.19-.34.46-.4.81-.06.35-.09.76-.09,1.23v4.49c0,.57.05,1.02.14,1.35.09.33.25.57.46.71.21.14.5.21.87.21.43,0,.74-.1.92-.29.19-.19.3-.46.35-.79.05-.34.07-.73.07-1.18v-.84h1.5v.84c0,.69-.08,1.3-.25,1.83s-.46.94-.87,1.23-.99.44-1.74.44Z"/>
    <path class="cls-2" d="M57.2,113.94c-.77,0-1.38-.15-1.83-.45-.46-.3-.78-.73-.98-1.28-.2-.56-.29-1.21-.29-1.95v-4.3c0-.75.1-1.39.3-1.93.2-.54.53-.95.98-1.23.45-.29,1.06-.43,1.83-.43s1.37.15,1.82.43c.45.29.77.7.97,1.23.2.53.3,1.17.3,1.92v4.31c0,.74-.1,1.38-.3,1.93-.2.55-.53.98-.97,1.28-.45.3-1.05.46-1.82.46ZM57.2,112.7c.42,0,.74-.09.95-.26s.36-.42.43-.73c.07-.31.11-.68.11-1.1v-4.97c0-.42-.04-.78-.11-1.08-.07-.3-.22-.54-.43-.7s-.53-.25-.95-.25-.74.08-.96.25-.37.4-.44.7c-.07.3-.11.67-.11,1.08v4.97c0,.42.04.79.11,1.1.07.31.22.56.44.73s.54.26.96.26Z"/>
    <path class="cls-2" d="M61.85,113.82v-11.34h2.46c.84,0,1.5.13,1.99.38.49.26.84.64,1.05,1.16s.31,1.15.31,1.92v4.17c0,.8-.1,1.48-.31,2.03s-.55.97-1.02,1.25c-.47.28-1.1.43-1.9.43h-2.59ZM63.43,112.68h.9c.58,0,.99-.11,1.23-.34.24-.22.39-.55.44-.98.05-.43.08-.95.08-1.55v-3.68c0-.59-.04-1.06-.11-1.43-.07-.36-.24-.63-.49-.8s-.65-.25-1.19-.25h-.85v9.03Z"/>
    <path class="cls-2" d="M69.23,113.82v-11.34h4.4v1.18h-2.81v3.75h2.28v1.12h-2.28v4.16h2.84v1.13h-4.42Z"/>
    <path class="cls-2" d="M77.67,105.71v-1.36c0-.72.1-1.28.31-1.69s.56-.62,1.08-.64l.27.55c-.29.03-.49.17-.59.41-.11.25-.16.64-.16,1.17h.74v1.57h-1.64ZM80.13,105.71v-1.36c0-.72.1-1.28.31-1.69.21-.41.56-.62,1.08-.64l.27.55c-.29.03-.49.17-.6.41s-.16.64-.16,1.17h.74v1.57h-1.64Z"/>
    <path class="cls-2" d="M83.05,113.82v-11.34h5.1v1.71h-2.59v2.81h1.97v1.74h-1.97v3.39h2.62v1.69h-5.12Z"/>
    <path class="cls-2" d="M89.28,113.82v-11.34h2.27v11.34h-2.27Z"/>
    <path class="cls-2" d="M93.01,104.35v-1.58h2.3v1.58h-2.3ZM93.03,113.82v-8.09h2.28v8.09h-2.28Z"/>
    <path class="cls-2" d="M96.16,113.82l1.72-4.44-1.64-3.65h2.3l.87,1.95.77-1.95h1.75l-1.6,3.99,1.83,4.1h-2.32l-.98-2.23-.81,2.23h-1.89Z"/>
    <path class="cls-2" d="M102.91,104.35v-1.58h2.3v1.58h-2.3ZM102.93,113.82v-8.09h2.28v8.09h-2.28Z"/>
    <path class="cls-2" d="M106.65,113.82v-8.09h2.28v1.34c.26-.47.52-.82.78-1.07.26-.25.58-.37.95-.37.07,0,.14,0,.2,0s.11.02.15.03v2.27c-.1-.05-.22-.09-.34-.12-.13-.03-.26-.05-.4-.05-.26,0-.5.07-.73.21-.22.14-.43.33-.62.57v5.26h-2.28Z"/>
    <path class="cls-2" d="M115.36,113.99c-.86,0-1.54-.16-2.04-.47-.5-.31-.85-.75-1.06-1.32-.21-.56-.31-1.23-.31-2v-4.09c0-.78.1-1.46.31-2.02.21-.56.56-1,1.06-1.31.5-.31,1.18-.46,2.04-.46s1.5.14,1.97.41c.47.28.8.66,1,1.16.2.49.29,1.06.29,1.71v.98h-2.45v-1.13c0-.22-.01-.44-.03-.64-.02-.21-.09-.38-.2-.51-.11-.13-.3-.2-.57-.2s-.46.07-.58.21c-.13.14-.21.31-.24.52s-.05.43-.05.67v5.33c0,.25.02.48.06.69s.13.38.25.5.31.19.55.19c.26,0,.45-.07.56-.2.11-.13.18-.31.21-.52.03-.21.04-.43.04-.66v-1.19h2.45v.98c0,.64-.1,1.22-.29,1.73s-.52.91-.99,1.2c-.47.29-1.13.44-1.98.44Z"/>
    <path class="cls-2" d="M122.53,113.96c-.58,0-1.08-.1-1.5-.29-.42-.2-.75-.49-.98-.88-.23-.39-.34-.88-.34-1.47v-3.08c0-.59.11-1.08.34-1.47.23-.39.56-.69.98-.88.42-.2.93-.29,1.5-.29s1.08.1,1.5.29c.42.2.75.49.99.88.23.39.35.88.35,1.47v3.08c0,.59-.12,1.08-.35,1.47-.23.39-.56.69-.99.88-.42.2-.93.29-1.5.29ZM122.54,112.45c.15,0,.27-.04.35-.12.08-.08.14-.19.18-.34s.05-.32.05-.52v-3.39c0-.21-.02-.38-.05-.52s-.09-.26-.18-.34c-.08-.08-.2-.12-.35-.12s-.27.04-.35.12c-.08.08-.15.19-.18.34-.04.14-.06.32-.06.52v3.39c0,.21.02.38.06.52.04.14.1.26.18.34.08.08.2.12.35.12Z"/>
    <path class="cls-2" d="M126.63,113.82v-8.09h2.28v.81c.3-.3.61-.53.93-.7.32-.17.66-.25,1.02-.25.34,0,.61.08.83.25.22.16.39.39.5.67.11.29.17.61.17.97v6.34h-2.27v-6.02c0-.2-.03-.35-.1-.45-.07-.1-.19-.15-.36-.15-.09,0-.2.03-.33.08-.13.05-.25.12-.38.22v6.33h-2.28Z"/>
    <path class="cls-2" d="M134.02,113.82v-6.55h-.77v-1.54h.77v-.6c0-.48.05-.89.15-1.25.1-.35.3-.63.62-.83.31-.2.8-.29,1.45-.29.18,0,.35,0,.53.01.17,0,.36.03.57.06v1.69c-.06-.02-.14-.04-.23-.05-.09-.01-.17-.02-.26-.02-.17,0-.3.05-.39.15-.09.1-.14.26-.14.48v.64h1.02v1.54h-1.02v6.55h-2.28Z"/>
    <path class="cls-2" d="M138.33,113.82v-11.34h4.9v1.69h-2.39v2.86h2.09v1.75h-2.09v5.04h-2.51Z"/>
    <path class="cls-2" d="M144.31,113.82v-8.09h2.28v1.34c.26-.47.52-.82.78-1.07.26-.25.58-.37.95-.37.08,0,.14,0,.2,0s.11.02.15.03v2.27c-.1-.05-.22-.09-.34-.12-.13-.03-.26-.05-.4-.05-.26,0-.5.07-.73.21-.22.14-.43.33-.62.57v5.26h-2.28Z"/>
    <path class="cls-2" d="M149.64,104.35v-1.58h2.3v1.58h-2.3ZM149.66,113.82v-8.09h2.28v8.09h-2.28Z"/>
    <path class="cls-2" d="M156,113.96c-.59,0-1.09-.1-1.51-.31s-.74-.52-.97-.92c-.22-.41-.34-.89-.34-1.46v-2.97c0-.58.11-1.07.34-1.47.22-.4.55-.71.97-.92.42-.21.93-.32,1.5-.32s1.09.1,1.49.31c.4.21.7.51.9.91.2.4.3.9.3,1.48v1.62h-3.25v1.55c0,.21.02.37.07.5s.11.22.2.28c.08.06.18.08.29.08s.21-.03.3-.08c.09-.05.16-.13.21-.25.05-.11.08-.27.08-.46v-.85h2.1v.78c0,.82-.24,1.44-.71,1.85-.48.42-1.13.62-1.97.62ZM155.44,108.85h1.15v-.81c0-.21-.03-.38-.08-.5-.05-.12-.12-.21-.21-.25s-.19-.07-.32-.07c-.11,0-.21.03-.29.08-.08.06-.14.15-.19.29-.05.14-.07.33-.07.58v.69Z"/>
    <path class="cls-2" d="M159.93,113.82v-8.09h2.28v.81c.3-.3.61-.53.93-.7.32-.17.66-.25,1.02-.25.34,0,.61.08.83.25.22.16.38.39.5.67.11.29.17.61.17.97v6.34h-2.27v-6.02c0-.2-.03-.35-.1-.45s-.19-.15-.36-.15c-.09,0-.2.03-.33.08-.13.05-.25.12-.38.22v6.33h-2.28Z"/>
    <path class="cls-2" d="M168.78,113.96c-.6,0-1.06-.21-1.39-.63-.33-.42-.49-1.04-.49-1.86v-3.35c0-.5.07-.94.21-1.32.14-.38.35-.67.63-.89.28-.21.62-.32,1.04-.32.3,0,.58.06.85.18.27.12.52.27.74.47v-3.75h2.28v11.34h-2.28v-.63c-.25.24-.51.43-.78.57-.27.14-.54.2-.81.2ZM169.77,112.5c.07,0,.17-.02.27-.06.11-.04.22-.09.33-.15v-5.11c-.09-.05-.19-.09-.29-.13s-.2-.06-.29-.06c-.21,0-.35.09-.45.26-.09.17-.14.38-.14.62v3.72c0,.17.02.32.06.46.04.13.1.24.18.32.08.08.2.12.34.12Z"/>
    <path class="cls-2" d="M176.56,113.96c-.71,0-1.3-.16-1.77-.48-.47-.32-.86-.83-1.15-1.55l1.55-.69c.15.36.32.65.53.86.2.21.42.31.67.31.18,0,.31-.04.4-.11.09-.08.13-.18.13-.31,0-.21-.08-.41-.25-.59-.16-.18-.45-.44-.88-.78l-.59-.49c-.43-.36-.77-.72-1.01-1.06s-.37-.76-.37-1.27c0-.44.11-.83.34-1.16s.53-.6.92-.78.79-.28,1.23-.28c.67,0,1.23.18,1.68.55.45.36.77.88.95,1.54l-1.5.67c-.06-.18-.14-.35-.24-.53s-.22-.33-.36-.45c-.14-.12-.3-.18-.48-.18-.15,0-.27.04-.36.13-.09.08-.13.2-.13.34,0,.18.1.37.3.57.2.21.48.45.83.74l.57.5c.23.2.46.41.69.63.22.22.41.47.55.74.14.27.22.58.22.92,0,.47-.12.87-.35,1.2-.23.33-.54.58-.92.75s-.78.25-1.21.25Z"/>
    <path class="cls-2" d="M179.98,106.19l-.27-.56c.29-.02.49-.15.59-.41s.16-.64.16-1.16h-.74v-1.58h1.64v1.36c0,.73-.1,1.3-.31,1.7-.21.41-.56.62-1.08.65ZM182.04,106.19l-.27-.56c.29-.02.49-.15.6-.41s.16-.64.16-1.16h-.74v-1.58h1.64v1.36c0,.73-.1,1.3-.31,1.7-.21.41-.57.62-1.08.65Z"/>
    <path class="cls-2" d="M188.28,113.82v-6.99h-.97v-1.11h.97v-.42c0-.5.04-.94.12-1.29.08-.36.25-.64.5-.83.25-.2.63-.29,1.13-.29.19,0,.35,0,.5.02.15.01.31.04.48.08v1.09c-.08-.02-.18-.04-.28-.05s-.2-.02-.28-.02c-.29,0-.47.1-.55.29-.08.19-.12.45-.12.76v.67h1.23v1.11h-1.23v6.99h-1.5Z"/>
    <path class="cls-2" d="M193.77,113.93c-.6,0-1.07-.12-1.41-.36-.35-.24-.59-.59-.74-1.04s-.22-.98-.22-1.58v-2.35c0-.61.07-1.13.22-1.58.14-.45.39-.79.74-1.04.34-.24.82-.36,1.41-.36s1.07.12,1.41.36c.34.24.58.59.73,1.04.14.45.22.98.22,1.58v2.35c0,.61-.07,1.13-.22,1.58s-.39.79-.73,1.04c-.34.24-.81.36-1.41.36ZM193.77,112.82c.29,0,.49-.08.61-.25.12-.17.19-.39.21-.67s.04-.56.04-.86v-2.53c0-.31-.01-.6-.04-.87s-.09-.49-.21-.67c-.12-.17-.32-.26-.61-.26s-.5.09-.62.26c-.12.17-.19.39-.22.67-.02.27-.04.56-.04.87v2.53c0,.3.01.59.04.86.02.28.09.5.22.67.12.17.33.25.62.25Z"/>
    <path class="cls-2" d="M197.54,113.82v-8.09h1.5v1.15c.3-.49.6-.83.9-.99.3-.17.6-.25.9-.25h.11s.08,0,.13.01v1.65c-.11-.05-.24-.09-.38-.12-.15-.03-.29-.05-.44-.05-.23,0-.45.05-.64.16-.19.11-.38.32-.57.62v5.91h-1.5Z"/>
    <path class="cls-2" d="M207.9,114.9v-.97c-.96-.02-1.68-.33-2.14-.94-.47-.61-.72-1.39-.77-2.35l1.4-.38c.03.4.09.79.19,1.16.1.37.26.68.48.92.22.24.54.36.94.36s.72-.11.93-.34.31-.56.31-.99c0-.51-.12-.93-.35-1.24-.23-.31-.53-.63-.88-.94l-1.9-1.68c-.24-.22-.45-.46-.61-.7-.16-.24-.28-.51-.36-.81-.08-.29-.12-.63-.12-1,0-.81.23-1.44.69-1.9.46-.45,1.08-.69,1.86-.72v-.94h.49v.94c.39.03.73.11,1.03.25.29.14.54.33.74.57.2.24.36.54.48.89.12.35.19.76.23,1.23l-1.34.36c-.03-.37-.08-.72-.17-1.04-.08-.32-.23-.58-.44-.78-.21-.2-.51-.28-.9-.25-.39.03-.7.14-.92.34-.22.2-.33.5-.33.91,0,.34.06.63.17.85.12.22.31.45.57.69l1.92,1.68c.28.25.54.53.79.85.25.31.45.66.6,1.04s.23.81.23,1.29c0,.51-.1.96-.29,1.35-.2.39-.47.69-.82.92-.35.22-.76.36-1.23.41v.98h-.48Z"/>
    <path class="cls-2" d="M214.71,113.93c-.68,0-1.22-.13-1.62-.39-.4-.26-.69-.64-.86-1.13-.17-.49-.26-1.08-.26-1.76h1.5c0,.34.03.67.08.99.06.32.17.59.36.8.18.21.46.31.83.31.41,0,.71-.12.88-.36.18-.24.29-.56.34-.97.05-.41.07-.87.07-1.38s-.03-.95-.08-1.31c-.06-.36-.17-.63-.35-.83-.18-.19-.46-.29-.84-.29-.31,0-.57.1-.78.29s-.37.41-.48.65h-1.27v-6.08h4.89v1.5h-3.53l-.1,3.14c.19-.2.42-.35.69-.46s.59-.17.94-.17c.62,0,1.1.14,1.45.43.35.29.6.69.74,1.19s.22,1.08.22,1.74c0,.58-.04,1.12-.13,1.62-.08.5-.23.93-.44,1.3-.21.37-.5.66-.86.86s-.83.31-1.39.31Z"/>
    <path class="cls-2" d="M221.6,113.94c-.64,0-1.17-.14-1.59-.43-.42-.29-.72-.69-.92-1.19-.2-.5-.3-1.08-.3-1.72v-4.89c0-.66.1-1.24.29-1.74.2-.5.5-.89.92-1.17.42-.28.95-.42,1.6-.42s1.19.14,1.6.42c.41.28.71.67.91,1.17.2.5.29,1.08.29,1.74v4.89c0,.65-.1,1.23-.3,1.74-.2.5-.51.9-.92,1.18-.41.28-.94.43-1.58.43ZM221.6,112.71c.35,0,.62-.1.8-.31.18-.21.31-.47.38-.79.07-.32.11-.66.11-1v-4.91c0-.36-.03-.71-.1-1.03-.07-.32-.19-.58-.37-.78-.18-.2-.46-.29-.82-.29s-.64.1-.83.29c-.19.2-.31.46-.38.78-.07.32-.1.67-.1,1.03v4.91c0,.35.04.68.1,1,.07.32.2.59.39.79.19.21.46.31.8.31Z"/>
    <path class="cls-2" d="M232.2,113.94c-.77,0-1.38-.15-1.83-.45-.46-.3-.78-.73-.98-1.28-.2-.56-.29-1.21-.29-1.95v-4.3c0-.75.1-1.39.3-1.93.2-.54.53-.95.98-1.23.45-.29,1.06-.43,1.83-.43s1.37.15,1.82.43c.45.29.77.7.97,1.23.2.53.3,1.17.3,1.92v4.31c0,.74-.1,1.38-.3,1.93-.2.55-.53.98-.97,1.28-.45.3-1.05.46-1.82.46ZM232.2,112.7c.42,0,.74-.09.95-.26.21-.17.36-.42.43-.73.07-.31.11-.68.11-1.1v-4.97c0-.42-.04-.78-.11-1.08-.08-.3-.22-.54-.43-.7-.21-.16-.53-.25-.95-.25s-.74.08-.96.25c-.22.16-.37.4-.44.7-.07.3-.11.67-.11,1.08v4.97c0,.42.04.79.11,1.1.08.31.22.56.44.73.22.17.54.26.96.26Z"/>
    <path class="cls-2" d="M236.85,113.82v-11.34h4.38v1.13h-2.8v3.78h2.17v1.12h-2.17v5.31h-1.58Z"/>
    <path class="cls-2" d="M242.32,113.82v-11.34h4.38v1.13h-2.8v3.78h2.17v1.12h-2.17v5.31h-1.58Z"/>
  </g>
  <g>
    <path class="cls-1" d="M36.37,138.5v-9.43h4.24v1.42h-2.15v2.34h1.64v1.44h-1.64v2.82h2.18v1.41h-4.26Z"/>
    <path class="cls-1" d="M40.96,138.5l1.83-5.08-1.75-4.35h1.97l1.04,2.55.84-2.55h1.73l-1.65,4.9,1.84,4.53h-1.96l-1.15-2.82-1.01,2.82h-1.72Z"/>
    <path class="cls-1" d="M47.54,138.5l.16-9.43h2.24l1.04,5.48,1.12-5.48h2.15l.16,9.43h-1.48l-.17-6.28-1.09,6.28h-1.32l-1.16-6.32-.14,6.32h-1.5Z"/>
    <path class="cls-1" d="M55.77,138.5v-9.43h4.24v1.42h-2.15v2.34h1.64v1.44h-1.64v2.82h2.18v1.41h-4.26Z"/>
    <path class="cls-1" d="M60.36,138.5l1.83-5.08-1.75-4.35h1.97l1.04,2.55.84-2.55h1.73l-1.65,4.9,1.84,4.53h-1.96l-1.15-2.82-1.01,2.82h-1.72Z"/>
    <path class="cls-1" d="M69.48,138.64c-.71,0-1.28-.13-1.69-.39-.42-.26-.71-.62-.88-1.09s-.26-1.02-.26-1.66v-3.4c0-.65.09-1.21.26-1.68s.46-.83.88-1.09c.42-.26.98-.38,1.69-.38s1.24.11,1.64.34c.39.23.67.55.83.96.16.41.24.89.24,1.42v.82h-2.04v-.94c0-.19,0-.37-.03-.54-.02-.17-.08-.31-.17-.42s-.25-.17-.48-.17-.38.06-.48.17c-.1.12-.17.26-.2.44s-.04.36-.04.55v4.44c0,.21.02.4.05.58.04.17.1.31.21.42.1.1.26.16.46.16.22,0,.37-.06.47-.17s.15-.26.17-.44c.02-.18.03-.36.03-.55v-.99h2.04v.82c0,.54-.08,1.01-.24,1.44-.16.42-.44.76-.83,1-.39.25-.94.37-1.65.37Z"/>
    <path class="cls-1" d="M76.03,138.64c-.71,0-1.27-.12-1.68-.37-.41-.25-.71-.61-.88-1.07-.18-.47-.27-1.02-.27-1.67v-3.5c0-.65.09-1.21.27-1.67.18-.46.47-.81.88-1.05.41-.25.97-.37,1.68-.37s1.28.12,1.69.37c.42.24.71.6.89,1.05s.27,1.01.27,1.67v3.5c0,.64-.09,1.2-.27,1.67s-.48.82-.89,1.07c-.42.25-.98.37-1.69.37ZM76.03,137.16c.22,0,.38-.05.48-.16.1-.11.17-.25.2-.42.03-.17.05-.35.05-.52v-4.54c0-.19-.02-.36-.05-.53-.03-.17-.1-.3-.2-.41-.1-.11-.26-.16-.48-.16-.2,0-.35.05-.45.16-.1.11-.17.25-.2.41-.03.17-.05.34-.05.53v4.54c0,.18.01.35.04.52.03.17.09.31.19.42s.25.16.47.16Z"/>
    <path class="cls-1" d="M80.16,138.5v-9.43h1.47l1.93,4.54v-4.54h1.72v9.43h-1.41l-1.93-4.89v4.89h-1.78Z"/>
    <path class="cls-1" d="M86.69,138.5v-9.43h4.08v1.41h-1.99v2.38h1.74v1.46h-1.74v4.19h-2.08Z"/>
    <path class="cls-1" d="M90.62,138.5v-1.79h1.79v1.79h-1.79Z"/>
    <path class="cls-1" d="M96.13,138.64c-.71,0-1.28-.13-1.69-.39-.42-.26-.71-.62-.88-1.09s-.26-1.02-.26-1.66v-3.4c0-.65.09-1.21.26-1.68s.46-.83.88-1.09c.42-.26.98-.38,1.69-.38s1.24.11,1.64.34c.39.23.67.55.83.96.16.41.24.89.24,1.42v.82h-2.04v-.94c0-.19,0-.37-.03-.54-.02-.17-.08-.31-.17-.42s-.25-.17-.48-.17-.38.06-.48.17c-.1.12-.17.26-.2.44s-.04.36-.04.55v4.44c0,.21.02.4.05.58.04.17.1.31.21.42.1.1.26.16.46.16.22,0,.37-.06.47-.17s.15-.26.17-.44c.02-.18.03-.36.03-.55v-.99h2.04v.82c0,.54-.08,1.01-.24,1.44-.16.42-.44.76-.83,1-.39.25-.94.37-1.65.37Z"/>
    <path class="cls-1" d="M102.69,138.64c-.71,0-1.27-.12-1.68-.37-.41-.25-.71-.61-.88-1.07-.18-.47-.27-1.02-.27-1.67v-3.5c0-.65.09-1.21.27-1.67.18-.46.47-.81.88-1.05.41-.25.97-.37,1.68-.37s1.28.12,1.69.37c.42.24.71.6.89,1.05s.27,1.01.27,1.67v3.5c0,.64-.09,1.2-.27,1.67s-.48.82-.89,1.07c-.42.25-.98.37-1.69.37ZM102.69,137.16c.22,0,.38-.05.48-.16.1-.11.17-.25.2-.42.03-.17.05-.35.05-.52v-4.54c0-.19-.02-.36-.05-.53-.03-.17-.1-.3-.2-.41-.1-.11-.26-.16-.48-.16-.2,0-.35.05-.45.16-.1.11-.17.25-.2.41-.03.17-.05.34-.05.53v4.54c0,.18.01.35.04.52.03.17.09.31.19.42s.25.16.47.16Z"/>
    <path class="cls-1" d="M106.77,138.5l.16-9.43h2.24l1.04,5.48,1.12-5.48h2.15l.16,9.43h-1.48l-.17-6.28-1.09,6.28h-1.32l-1.16-6.32-.14,6.32h-1.5Z"/>
    <path class="cls-1" d="M117.03,136.37v-.87h2.2v.87h-2.2Z"/>
    <path class="cls-1" d="M123.29,138.5l-1.39-7.29h1.29l.86,5.04.81-5.04h1.34l-1.39,7.29h-1.53Z"/>
    <path class="cls-1" d="M127.32,138.59c-.25,0-.46-.06-.64-.19-.17-.13-.31-.29-.4-.48-.09-.19-.14-.39-.14-.59,0-.32.06-.6.19-.82.13-.22.29-.41.5-.56s.43-.28.68-.39c.25-.11.5-.21.76-.3v-.49c0-.11,0-.21-.03-.3s-.05-.15-.1-.19c-.05-.05-.12-.07-.22-.07s-.17.02-.22.06c-.05.04-.09.1-.11.17-.02.08-.04.16-.04.25l-.04.36-1.28-.05c.03-.61.19-1.06.48-1.36.29-.29.73-.44,1.32-.44.53,0,.92.15,1.17.44s.38.67.38,1.15v2.42c0,.2,0,.39.01.54,0,.16.02.3.04.42.02.12.03.23.04.32h-1.22c-.02-.13-.04-.28-.06-.43-.02-.16-.04-.26-.05-.32-.06.22-.17.41-.34.58-.17.17-.39.26-.68.26ZM127.81,137.63c.07,0,.13-.01.18-.04.06-.03.11-.07.16-.12.05-.05.09-.09.12-.13v-1.43c-.13.08-.24.15-.35.23-.11.07-.2.16-.28.25-.08.09-.14.19-.18.3-.04.11-.06.23-.06.37,0,.18.04.32.11.43.07.1.17.16.31.16Z"/>
    <path class="cls-1" d="M130.53,138.5v-7.29h1.36v7.29h-1.36Z"/>
    <path class="cls-1" d="M132.85,132.44v-1.02h1.37v1.02h-1.37ZM132.86,138.5v-5.2h1.36v5.2h-1.36Z"/>
    <path class="cls-1" d="M136.3,138.59c-.4,0-.7-.14-.91-.42-.21-.28-.32-.71-.32-1.3v-1.91c0-.34.04-.64.13-.9.09-.26.22-.47.4-.63s.41-.23.69-.23c.19,0,.36.04.53.12s.32.18.46.3v-2.41h1.36v7.29h-1.36v-.39c-.15.14-.31.26-.47.35s-.33.13-.51.13ZM136.85,137.69c.06,0,.13-.01.2-.04s.15-.06.23-.11v-3.31c-.07-.04-.13-.07-.21-.09-.07-.03-.14-.04-.22-.04-.16,0-.27.07-.33.2-.06.13-.09.29-.09.48v2.2c0,.14.01.26.04.37.02.11.07.2.13.26.06.06.14.09.25.09Z"/>
    <path class="cls-1" d="M142.7,138.59c-.21,0-.38-.05-.53-.16-.14-.11-.24-.25-.31-.43-.07-.18-.1-.38-.1-.59v-4.1h1.36v3.91c0,.14.02.25.07.33.05.08.14.11.26.11.07,0,.15-.02.23-.06.08-.04.16-.09.25-.14v-4.15h1.36v5.2h-1.36v-.49c-.18.17-.37.31-.58.42-.21.1-.42.16-.65.16Z"/>
    <path class="cls-1" d="M146.22,138.5v-5.2h1.36v.52c.19-.19.38-.33.59-.45.21-.11.43-.17.66-.17.22,0,.39.05.53.16.13.11.24.25.3.43.07.18.1.38.1.6v4.1h-1.35v-3.88c0-.14-.02-.25-.07-.32s-.13-.11-.26-.11c-.07,0-.15.02-.24.06-.09.04-.18.09-.27.16v4.09h-1.36Z"/>
    <path class="cls-1" d="M152.24,138.55c-.37,0-.65-.05-.85-.17s-.34-.27-.42-.48c-.08-.21-.12-.46-.12-.77v-2.95h-.51v-.89h.51v-1.58h1.37v1.58h.76v.89h-.76v2.83c0,.16.04.28.13.35.08.07.2.1.34.1.07,0,.14,0,.21-.01.07,0,.13-.02.18-.02v1.06c-.09.01-.21.03-.36.04-.15.02-.31.02-.47.02Z"/>
    <path class="cls-1" d="M153.75,132.44v-1.02h1.37v1.02h-1.37ZM153.76,138.5v-5.2h1.36v5.2h-1.36Z"/>
    <path class="cls-1" d="M156.12,138.5v-7.29h1.36v7.29h-1.36Z"/>
    <path class="cls-1" d="M162.66,138.62c-.44,0-.8-.09-1.09-.27-.29-.18-.5-.43-.65-.74-.14-.31-.22-.68-.22-1.09v-3.27c0-.43.07-.8.21-1.12.14-.32.35-.57.64-.75s.66-.27,1.11-.27.81.09,1.09.27c.29.18.5.43.63.75.14.32.21.69.21,1.12v3.27c0,.41-.07.78-.22,1.09-.14.32-.36.56-.65.74-.29.18-.64.27-1.07.27ZM162.66,137.4c.16,0,.28-.05.35-.15.07-.1.12-.22.14-.36.02-.14.04-.27.04-.39v-3.21c0-.13,0-.27-.03-.41-.02-.14-.07-.27-.14-.37-.07-.1-.19-.16-.36-.16s-.29.05-.36.16c-.08.11-.12.23-.14.37-.02.14-.03.28-.03.41v3.21c0,.12.01.25.04.39.02.14.07.26.15.36.08.1.2.15.35.15Z"/>
    <path class="cls-1" d="M167.42,138.6c-.45,0-.81-.07-1.08-.21-.27-.14-.46-.35-.58-.63-.12-.28-.18-.62-.18-1.02v-.11h1.31c0,.31.03.53.09.68.06.15.21.23.45.23.14,0,.25-.04.33-.13.08-.09.13-.24.16-.46.03-.22.04-.51.04-.87v-.75c-.08.13-.21.23-.37.31s-.35.11-.56.12c-.39,0-.7-.09-.94-.28-.23-.2-.4-.46-.5-.79-.1-.33-.15-.7-.15-1.1,0-.5.06-.93.19-1.3s.33-.65.63-.86.67-.31,1.15-.31.84.1,1.12.29c.29.2.5.47.63.81.13.35.2.76.2,1.22v2.66c0,.47-.05.9-.16,1.28-.11.38-.3.67-.58.89-.28.22-.68.32-1.21.32ZM167.43,134.68c.14,0,.25-.04.34-.11.09-.08.15-.15.2-.22v-1.16c0-.19-.02-.36-.04-.51-.03-.16-.08-.28-.16-.38-.08-.1-.19-.14-.34-.14s-.26.05-.34.15c-.08.1-.13.25-.16.43-.03.19-.04.41-.04.67,0,.25,0,.46.03.66.02.19.06.34.14.45.08.11.2.16.38.16Z"/>
    <path class="cls-1" d="M170.29,138.5v-1.32h1.3v1.32h-1.3Z"/>
    <path class="cls-1" d="M173.22,138.5v-5.85c-.05.03-.13.06-.22.09-.09.03-.19.07-.3.11s-.21.08-.31.11c-.1.03-.17.06-.23.08v-1.03c.07-.04.17-.08.29-.14.12-.06.25-.13.39-.2.14-.07.27-.15.39-.23s.22-.16.28-.23h1.08v7.29h-1.39Z"/>
    <path class="cls-1" d="M175.78,138.5v-.98l1.77-2.73c.13-.2.26-.4.37-.58s.21-.38.29-.57c.08-.2.11-.4.11-.63s-.04-.41-.13-.54-.22-.18-.39-.18c-.18,0-.32.05-.41.15-.1.1-.16.23-.2.39s-.05.34-.05.53v.34h-1.36v-.36c0-.43.07-.82.2-1.15s.35-.6.64-.79c.29-.19.67-.28,1.15-.28.64,0,1.12.17,1.45.5.32.34.49.81.49,1.41,0,.29-.04.57-.13.81s-.21.49-.36.72c-.15.23-.3.47-.47.72l-1.4,2.12h2.17v1.1h-3.73Z"/>
    <path class="cls-1" d="M180.39,138.5v-1.32h1.3v1.32h-1.3Z"/>
    <path class="cls-1" d="M182.42,138.5v-.98l1.77-2.73c.13-.2.26-.4.37-.58s.21-.38.29-.57c.08-.2.11-.4.11-.63s-.04-.41-.13-.54-.22-.18-.39-.18c-.18,0-.32.05-.41.15-.1.1-.16.23-.2.39s-.05.34-.05.53v.34h-1.36v-.36c0-.43.07-.82.2-1.15s.35-.6.64-.79c.29-.19.67-.28,1.15-.28.64,0,1.12.17,1.45.5.32.34.49.81.49,1.41,0,.29-.04.57-.13.81s-.21.49-.36.72c-.15.23-.3.47-.47.72l-1.4,2.12h2.17v1.1h-3.73Z"/>
    <path class="cls-1" d="M188.88,138.62c-.51,0-.9-.09-1.17-.28-.27-.19-.45-.45-.55-.78-.1-.34-.15-.73-.15-1.18h1.34c0,.26.02.49.05.67.03.18.09.32.18.41s.22.13.39.13c.17,0,.3-.07.38-.2.08-.13.13-.31.14-.54.02-.23.03-.51.03-.83,0-.26-.02-.49-.04-.68-.03-.2-.09-.35-.18-.47s-.22-.17-.4-.17c-.16,0-.3.06-.4.17-.11.11-.18.28-.23.49h-1.19l.1-4.14h3.35v1.2h-2.21l-.08,1.61c.07-.09.19-.17.36-.23.17-.07.36-.11.55-.12.38-.04.69.04.94.22.25.18.43.45.55.8.12.35.18.78.18,1.28,0,.38-.02.74-.07,1.07-.05.33-.14.61-.28.85-.14.24-.34.42-.59.55-.26.13-.59.2-1.01.2Z"/>
    <path class="cls-1" d="M197.62,139.65c-.65,0-1.22-.09-1.71-.28-.49-.19-.9-.46-1.22-.82-.32-.36-.55-.8-.69-1.31-.14-.52-.18-1.1-.12-1.76.05-.66.19-1.25.41-1.78.22-.53.51-.98.89-1.34.37-.37.81-.65,1.32-.85.51-.2,1.07-.3,1.7-.3s1.14.1,1.58.29c.44.19.8.46,1.07.81.27.34.46.75.58,1.2.11.46.15.95.1,1.48-.02.31-.08.61-.18.92-.1.31-.24.59-.43.85-.19.26-.42.46-.69.62-.28.15-.6.23-.96.23-.16,0-.32-.02-.48-.07s-.29-.12-.4-.23c-.11-.11-.19-.24-.24-.39-.06.16-.17.3-.32.43s-.33.19-.54.21c-.32.02-.6-.04-.84-.2-.23-.16-.41-.38-.52-.66s-.16-.6-.16-.95c.01-.28.06-.57.14-.89.08-.32.21-.62.38-.9.17-.28.38-.51.64-.68s.55-.27.9-.27c.13,0,.24.03.33.1s.16.15.21.23c.05.08.09.15.12.21l.09-.49h1.06l-.41,3.02c-.01.08-.02.17-.03.29s0,.22.01.31c.02.09.06.15.13.17.14.02.27,0,.41-.08s.26-.21.38-.38.21-.37.29-.61c.08-.23.12-.49.14-.77.04-.44.03-.83-.05-1.19-.08-.36-.21-.67-.41-.93-.2-.26-.47-.47-.8-.61-.33-.14-.74-.22-1.22-.22s-.95.09-1.33.26c-.38.17-.7.41-.97.72-.26.31-.47.67-.62,1.08s-.24.86-.27,1.33c-.04.43-.03.81.01,1.17.04.35.14.66.27.93.14.27.32.5.55.68.23.19.51.33.85.42.33.1.72.14,1.15.14.16,0,.34-.01.54-.04.2-.02.41-.06.62-.1s.41-.09.59-.15l.16.86c-.34.08-.68.15-1.03.2-.35.06-.69.09-1.01.09ZM197.59,136.62c.05,0,.14-.04.27-.09.12-.06.21-.16.26-.3l.29-2.12s-.06-.06-.12-.08c-.06-.02-.11-.03-.15-.03-.24,0-.45.09-.62.27s-.3.4-.39.67c-.09.27-.14.54-.14.82,0,.16.02.31.06.45.04.14.11.25.2.32.09.08.21.11.36.1Z"/>
    <path class="cls-1" d="M205.35,138.5v-5.85c-.05.03-.13.06-.22.09-.09.03-.19.07-.3.11s-.21.08-.31.11c-.1.03-.17.06-.23.08v-1.03c.07-.04.17-.08.29-.14.12-.06.25-.13.39-.2.14-.07.27-.15.39-.23s.22-.16.28-.23h1.08v7.29h-1.39Z"/>
    <path class="cls-1" d="M207.91,138.5v-.98l1.77-2.73c.13-.2.26-.4.37-.58s.21-.38.29-.57c.08-.2.11-.4.11-.63s-.04-.41-.13-.54-.22-.18-.39-.18c-.18,0-.32.05-.41.15-.1.1-.16.23-.2.39s-.05.34-.05.53v.34h-1.36v-.36c0-.43.07-.82.2-1.15s.35-.6.64-.79c.29-.19.67-.28,1.15-.28.64,0,1.12.17,1.45.5.32.34.49.81.49,1.41,0,.29-.04.57-.13.81s-.21.49-.36.72c-.15.23-.3.47-.47.72l-1.4,2.12h2.17v1.1h-3.73Z"/>
    <path class="cls-1" d="M212.56,140.21v-6.91h1.36v.39c.16-.15.34-.27.53-.35s.38-.13.57-.13c.21,0,.39.05.53.14.14.09.26.22.35.37.09.16.15.33.19.52s.05.39.05.58v2.03c0,.34-.04.63-.13.89s-.21.46-.38.61c-.17.15-.39.22-.66.22-.19,0-.37-.04-.54-.13-.18-.09-.35-.21-.51-.35v2.11h-1.36ZM214.37,137.68c.11,0,.2-.03.26-.1.06-.07.1-.16.12-.27.02-.11.04-.24.04-.38v-2.18c0-.13-.01-.24-.04-.34-.02-.1-.07-.18-.13-.25-.06-.06-.14-.09-.24-.09-.08,0-.17.02-.24.06-.08.04-.15.09-.22.15v3.26c.07.05.14.08.22.11s.15.04.23.04Z"/>
    <path class="cls-1" d="M216.99,138.5v-5.2h1.32v.43c.19-.19.38-.33.59-.41s.42-.12.63-.12.39.05.54.16c.15.11.27.26.34.47.2-.23.42-.39.64-.49.22-.1.45-.14.68-.14.19,0,.36.05.51.14.15.1.27.24.35.42.08.19.13.41.13.68v4.05h-1.32v-3.92c0-.17-.03-.29-.08-.36-.06-.07-.14-.1-.26-.1-.07,0-.16.02-.26.06-.1.04-.2.1-.29.18v4.13h-1.3v-3.92c0-.17-.03-.29-.09-.36-.06-.07-.15-.1-.26-.1-.08,0-.17.02-.27.06-.1.04-.19.1-.28.18v4.13h-1.32Z"/>
    <path class="cls-1" d="M227.98,138.6c-.54,0-.97-.1-1.28-.31-.31-.2-.54-.49-.66-.85s-.19-.78-.19-1.26v-2.62c0-.5.06-.94.19-1.3s.35-.64.66-.84c.32-.2.74-.3,1.28-.3s.93.09,1.23.26.51.42.63.74.18.69.18,1.11v.61h-1.44v-.68c0-.17,0-.33-.03-.47-.02-.15-.07-.27-.15-.36-.08-.09-.22-.14-.42-.14s-.34.05-.43.14c-.09.1-.15.22-.17.37-.02.15-.04.32-.04.51v3.31c0,.2.02.38.05.54.03.15.1.27.19.35s.23.12.4.12c.19,0,.33-.05.41-.14s.13-.22.15-.37c.02-.16.03-.32.03-.5v-.71h1.44v.6c0,.43-.06.8-.18,1.13-.12.33-.33.59-.62.77-.29.19-.71.28-1.24.28Z"/>
    <path class="cls-1" d="M231.62,138.5v-6.18h-1.12v-1.11h3.73v1.11h-1.11v6.18h-1.49Z"/>
  </g>
</svg>