<?xml version="1.0" encoding="UTF-8"?>
<svg id="Layer_1" data-name="Layer 1" xmlns="http://www.w3.org/2000/svg" viewBox="0 0 270 162">
  <defs>
    <style>
      .cls-1 {
        fill: #70488b;
      }

      .cls-2 {
        fill: #fff;
      }
    </style>
  </defs>
  <rect class="cls-1" x="-9" y="-9" width="288" height="180"/>
  <g>
    <path class="cls-2" d="M52.25,42.08h-11.08v10.6h9.23v8.62h-9.23v11.42h18.88v8.62h-7.04l-2.87-4.99-2.87,4.99h-20.31v-47.88h20.31l2.87,4.99,2.87-4.99h6.02v8.62h-6.77Z"/>
    <path class="cls-2" d="M100.69,81.34l-5.54-4.99-.2,4.99h-4.38l-8.21-15.53-8.34,15.53h-1.85l-.21-4.99-5.54,4.99h-2.6l13.89-24.28-12.52-23.6h5.2l5.54,4.99.21-4.99h4.38l6.91,13,6.98-13h1.85l.21,4.99,5.54-4.99h2.6l-12.58,21.61,13.95,26.26h-5.27Z"/>
    <path class="cls-2" d="M151.92,81.34l-2.87-4.99-2.87,4.99h-3.97v-31.87l-8.82,31.87h-4.31l-8.69-31.87v31.87l-1.92.07-2.87-4.99-2.87,4.99-1.91-.07v-47.88h5.81l2.87,4.99,2.87-4.99h5.75l5.88,16.96,5.81-16.96h6.36l2.87,4.99,2.87-4.99h3.97v47.88h-3.97Z"/>
    <path class="cls-2" d="M188.57,42.08h-11.08v10.6h9.23v8.62h-9.23v11.42h18.88v8.62h-7.04l-2.87-4.99-2.87,4.99h-20.31v-47.88h20.31l2.87,4.99,2.87-4.99h6.02v8.62h-6.77Z"/>
    <path class="cls-2" d="M237,81.34l-5.54-4.99-.2,4.99h-4.38l-8.21-15.53-8.34,15.53h-1.85l-.21-4.99-5.54,4.99h-2.6l13.89-24.28-12.52-23.6h5.2l5.54,4.99.21-4.99h4.38l6.91,13,6.98-13h1.85l.21,4.99,5.54-4.99h2.6l-12.58,21.61,13.95,26.26h-5.27Z"/>
  </g>
  <g>
    <path class="cls-2" d="M29.49,133.47v-12.11h-2.18v-2.38h7.57v2.38h-2.17v12.11h-3.22Z"/>
    <path class="cls-2" d="M36.02,133.47l-1.52-10.34h2.43l.75,5.87.81-5.87h2.11l.7,6.01.88-6.01h2.25l-1.54,10.34h-2.5l-.9-5.82-1,5.82h-2.47Z"/>
    <path class="cls-2" d="M49.12,133.65c-.74,0-1.38-.12-1.92-.38-.54-.25-.96-.63-1.25-1.13-.29-.5-.44-1.13-.44-1.88v-3.94c0-.75.15-1.38.44-1.88.29-.5.71-.88,1.25-1.13.54-.25,1.18-.38,1.92-.38s1.38.12,1.92.38c.54.25.96.63,1.26,1.13.3.5.45,1.13.45,1.88v3.94c0,.75-.15,1.38-.45,1.88-.3.5-.72.88-1.26,1.13-.54.25-1.18.38-1.92.38ZM49.14,131.71c.19,0,.34-.05.45-.15s.18-.25.22-.43c.04-.18.06-.41.06-.67v-4.33c0-.26-.02-.49-.06-.67-.04-.18-.12-.33-.22-.43s-.26-.15-.45-.15-.34.05-.45.15-.19.25-.23.43c-.05.18-.07.41-.07.67v4.33c0,.26.02.49.07.67.05.18.13.33.23.43s.26.15.45.15Z"/>
    <path class="cls-2" d="M61.18,133.65c-.76,0-1.35-.27-1.77-.8-.42-.54-.63-1.33-.63-2.38v-4.28c0-.64.09-1.21.27-1.69.18-.48.45-.86.81-1.14s.8-.41,1.32-.41c.38,0,.75.07,1.09.22.35.15.66.35.95.6v-4.79h2.92v14.49h-2.92v-.81c-.32.31-.66.55-1,.73-.35.17-.69.26-1.04.26ZM62.45,131.79c.1,0,.21-.02.35-.07.14-.05.28-.11.42-.2v-6.53c-.12-.06-.24-.11-.38-.16-.13-.05-.26-.07-.38-.07-.26,0-.45.11-.57.33s-.18.49-.18.8v4.76c0,.21.02.41.07.58s.13.31.23.41.25.15.43.15Z"/>
    <path class="cls-2" d="M69.78,133.65c-.52,0-.97-.12-1.32-.38-.36-.25-.63-.57-.81-.96-.18-.39-.27-.78-.27-1.19,0-.64.13-1.19.38-1.63.26-.44.59-.81,1.01-1.11.42-.3.88-.55,1.38-.76s1-.4,1.48-.56v-1.04c0-.18-.02-.34-.05-.47-.04-.14-.1-.24-.18-.32-.08-.08-.21-.12-.38-.12s-.29.04-.38.11c-.09.07-.15.17-.19.3-.04.12-.06.27-.07.42l-.07.75-2.72-.11c.06-1.24.39-2.16.99-2.75.6-.59,1.51-.88,2.71-.88,1.05,0,1.83.29,2.35.87.52.58.78,1.33.78,2.25v4.83c0,.43,0,.8.03,1.13.02.32.04.6.07.84.03.24.06.44.08.61h-2.61c-.04-.27-.08-.57-.12-.89-.05-.32-.08-.51-.11-.57-.12.43-.34.81-.67,1.14-.33.33-.77.5-1.32.5ZM70.82,131.68c.12,0,.23-.02.33-.07.1-.05.19-.11.28-.2s.15-.17.21-.25v-2.83c-.24.14-.46.29-.66.44-.2.15-.38.31-.52.49s-.25.37-.33.58c-.08.21-.12.44-.12.71,0,.35.07.62.21.82.14.2.34.3.59.3Z"/>
    <path class="cls-2" d="M76.39,136.47v-2.02c.37,0,.68-.02.92-.07s.43-.14.55-.27c.13-.13.19-.31.19-.54,0-.2-.04-.45-.11-.74-.07-.29-.16-.62-.27-.99l-2.43-8.71h2.74l1.31,5.98.98-5.98h2.76l-2.38,10.59c-.16.71-.4,1.27-.73,1.67-.33.4-.74.68-1.23.84s-1.03.24-1.64.24h-.66Z"/>
    <path class="cls-2" d="M87.3,133.65c-.91,0-1.66-.2-2.26-.61-.6-.41-1.09-1.07-1.48-1.99l1.99-.88c.19.46.41.83.67,1.1.26.27.54.4.85.4.23,0,.4-.05.51-.14.11-.09.17-.23.17-.39,0-.27-.1-.52-.31-.75-.21-.23-.58-.56-1.12-1l-.75-.63c-.55-.46-.98-.92-1.3-1.35s-.47-.98-.47-1.62c0-.56.15-1.06.44-1.49.29-.43.68-.76,1.17-1s1.01-.36,1.57-.36c.86,0,1.57.23,2.15.7.57.46.98,1.12,1.22,1.97l-1.91.86c-.07-.23-.17-.45-.3-.68s-.29-.42-.47-.57c-.18-.15-.38-.23-.61-.23-.19,0-.34.05-.46.16s-.17.25-.17.43c0,.23.13.47.38.73.26.26.61.58,1.06.95l.73.64c.3.25.59.52.88.8.29.29.52.6.71.95.18.35.28.74.28,1.18,0,.6-.15,1.11-.45,1.53-.3.42-.69.74-1.17.96-.48.21-1,.32-1.55.32Z"/>
    <path class="cls-2" d="M91.61,133.47v-2.76h2.76v2.76h-2.76Z"/>
    <path class="cls-2" d="M104.96,133.68c-1.09,0-1.94-.19-2.58-.57-.63-.38-1.09-.93-1.36-1.65s-.41-1.57-.41-2.56v-5.39c0-1,.14-1.85.41-2.56s.73-1.24,1.36-1.62c.63-.38,1.49-.56,2.58-.56s1.97.19,2.6.56c.64.38,1.09.92,1.37,1.62s.41,1.56.41,2.56v5.39c0,.99-.14,1.84-.41,2.56s-.73,1.26-1.37,1.65c-.64.38-1.51.57-2.6.57ZM104.96,131.41c.33,0,.58-.08.73-.25.15-.17.26-.38.3-.64.05-.26.07-.53.07-.81v-6.98c0-.29-.02-.56-.07-.81-.05-.26-.15-.47-.3-.63-.16-.17-.4-.25-.73-.25-.31,0-.54.08-.7.25-.16.17-.26.38-.3.63-.05.26-.07.53-.07.81v6.98c0,.27.02.54.06.81.04.26.14.48.29.64.15.17.39.25.72.25Z"/>
    <path class="cls-2" d="M111.13,133.47v-10.34h2.92v1.04c.38-.38.78-.68,1.19-.89s.84-.32,1.3-.32c.43,0,.78.1,1.06.31.28.21.49.5.64.86.14.36.21.78.21,1.24v8.11h-2.9v-7.69c0-.25-.04-.44-.12-.57-.08-.13-.24-.2-.47-.2-.12,0-.26.03-.42.1-.16.07-.33.16-.49.28v8.09h-2.92Z"/>
    <path class="cls-2" d="M123.59,133.65c-.75,0-1.4-.13-1.93-.4s-.95-.66-1.23-1.18c-.29-.52-.43-1.14-.43-1.87v-3.79c0-.74.14-1.37.43-1.88.29-.51.7-.9,1.24-1.17s1.18-.4,1.92-.4,1.4.13,1.91.39c.51.26.89.65,1.15,1.16.26.51.38,1.14.38,1.9v2.08h-4.15v1.99c0,.26.03.48.09.64.06.17.14.29.25.36s.23.11.38.11.27-.03.38-.1c.11-.07.2-.17.27-.31.07-.14.1-.34.1-.59v-1.09h2.68v1c0,1.05-.3,1.84-.91,2.37-.61.53-1.45.8-2.52.8ZM122.87,127.12h1.47v-1.04c0-.27-.03-.49-.1-.64-.07-.15-.16-.26-.27-.32-.11-.06-.25-.09-.4-.09-.14,0-.27.04-.37.11-.1.07-.18.19-.24.37-.06.17-.09.42-.09.74v.88Z"/>
    <path class="cls-2" d="M136.43,133.57c-.78,0-1.37-.11-1.79-.34s-.71-.56-.87-.99-.24-.96-.24-1.58v-5.62h-1v-1.91h1v-3.15h2.95v3.15h1.47v1.91h-1.47v5.33c0,.3.09.51.26.64s.39.2.65.2c.16,0,.3,0,.43-.03.13-.02.25-.03.36-.04v2.29c-.16.02-.4.05-.73.09s-.67.05-1.02.05Z"/>
    <path class="cls-2" d="M139.51,133.47v-10.34h2.92v1.72c.33-.6.67-1.05,1-1.37.33-.32.74-.47,1.22-.47.09,0,.18,0,.25,0s.14.02.2.04v2.9c-.13-.06-.28-.11-.44-.15s-.33-.06-.51-.06c-.33,0-.64.09-.93.27-.29.18-.55.42-.79.73v6.73h-2.92Z"/>
    <path class="cls-2" d="M147.87,133.65c-.53,0-.97-.12-1.32-.38-.36-.25-.63-.57-.81-.96-.18-.39-.27-.78-.27-1.19,0-.64.13-1.19.38-1.63.26-.44.59-.81,1.01-1.11.42-.3.88-.55,1.38-.76s1-.4,1.49-.56v-1.04c0-.18-.02-.34-.05-.47-.04-.14-.1-.24-.18-.32-.08-.08-.21-.12-.38-.12s-.29.04-.38.11c-.09.07-.15.17-.19.3s-.06.27-.07.42l-.07.75-2.72-.11c.06-1.24.39-2.16.99-2.75.6-.59,1.51-.88,2.71-.88,1.05,0,1.83.29,2.35.87.52.58.78,1.33.78,2.25v4.83c0,.43,0,.8.03,1.13s.04.6.07.84c.03.24.06.44.08.61h-2.61c-.04-.27-.08-.57-.13-.89s-.08-.51-.11-.57c-.12.43-.34.81-.67,1.14s-.77.5-1.31.5ZM148.9,131.68c.12,0,.23-.02.33-.07.1-.05.19-.11.28-.2.08-.08.16-.17.21-.25v-2.83c-.24.14-.46.29-.66.44-.2.15-.38.31-.52.49-.14.18-.25.37-.33.58-.08.21-.12.44-.12.71,0,.35.07.62.21.82.14.2.34.3.59.3Z"/>
    <path class="cls-2" d="M157.62,133.65c-.75,0-1.39-.14-1.92-.41-.53-.27-.94-.67-1.23-1.18-.29-.51-.43-1.13-.43-1.86v-3.79c0-.74.14-1.37.43-1.88s.7-.9,1.23-1.17c.53-.27,1.17-.4,1.92-.4s1.37.11,1.89.34.92.57,1.19,1.03c.27.46.41,1.04.41,1.75v1.09h-2.81v-1.18c0-.27-.03-.49-.08-.63-.05-.15-.13-.25-.23-.31-.1-.06-.22-.09-.37-.09s-.26.04-.36.12c-.1.08-.17.2-.21.38-.05.17-.07.42-.07.72v4.29c0,.46.06.78.17.95s.28.25.49.25c.16,0,.28-.03.38-.1.1-.07.17-.17.21-.32.05-.15.07-.35.07-.6v-1.38h2.81v1.25c0,.69-.14,1.27-.42,1.74-.28.47-.68.82-1.2,1.06-.52.23-1.14.35-1.87.35Z"/>
    <path class="cls-2" d="M162.63,133.47v-14.49h2.81v8.03l2.11-3.88h3.24l-2.49,4.24,2.47,6.1h-3.15l-1.54-4.92-.64.98v3.94h-2.81Z"/>
    <path class="cls-2" d="M171.66,133.47v-2.76h2.75v2.76h-2.75Z"/>
    <path class="cls-2" d="M180.16,133.47l2.74-14.49h3.65l2.7,14.49h-2.95l-.48-3.06h-2.13l-.5,3.06h-3.02ZM183.97,128.49h1.54l-.77-5.65-.77,5.65Z"/>
    <path class="cls-2" d="M190.68,133.47v-14.49h2.9v14.49h-2.9Z"/>
    <path class="cls-2" d="M195.58,133.47v-14.49h2.9v14.49h-2.9Z"/>
    <path class="cls-2" d="M205.1,133.47v-14.49h6.51v2.18h-3.31v3.6h2.52v2.22h-2.52v4.33h3.35v2.17h-6.55Z"/>
    <path class="cls-2" d="M213.07,133.47v-14.49h2.9v14.49h-2.9Z"/>
    <path class="cls-2" d="M217.84,121.37v-2.02h2.93v2.02h-2.93ZM217.86,133.47v-10.34h2.92v10.34h-2.92Z"/>
    <path class="cls-2" d="M221.87,133.47l2.2-5.67-2.09-4.67h2.93l1.11,2.49.98-2.49h2.24l-2.04,5.1,2.34,5.24h-2.97l-1.25-2.84-1.04,2.84h-2.42Z"/>
    <path class="cls-2" d="M230.49,121.37v-2.02h2.93v2.02h-2.93ZM230.51,133.47v-10.34h2.92v10.34h-2.92Z"/>
    <path class="cls-2" d="M235.27,133.47v-10.34h2.92v1.72c.33-.6.67-1.05,1-1.37.33-.32.74-.47,1.22-.47.09,0,.18,0,.25,0s.14.02.2.04v2.9c-.13-.06-.28-.11-.44-.15s-.33-.06-.51-.06c-.33,0-.64.09-.93.27-.29.18-.55.42-.79.73v6.73h-2.92Z"/>
    <path class="cls-2" d="M240.32,133.47v-2.76h2.75v2.76h-2.75Z"/>
  </g>
  <rect class="cls-2" x="26.87" y="91.14" width="216" height="18"/>
  <g>
    <path class="cls-1" d="M75.2,104.84l1.68-8.91h2.24l1.66,8.91h-1.81l-.3-1.88h-1.31l-.31,1.88h-1.86ZM77.54,101.78h.95l-.47-3.48-.47,3.48Z"/>
    <path class="cls-1" d="M82.71,104.95c-.26,0-.48-.06-.65-.19-.18-.13-.31-.31-.4-.53-.09-.23-.13-.48-.13-.76v-4.98h1.79v4.77c0,.15.03.27.08.36.05.08.15.13.29.13.08,0,.17-.02.25-.06.09-.04.18-.09.27-.14v-5.06h1.78v6.36h-1.78v-.58c-.23.21-.47.38-.72.51-.25.12-.52.19-.79.19Z"/>
    <path class="cls-1" d="M89.09,104.95c-.56,0-1.02-.12-1.39-.37-.37-.25-.67-.66-.91-1.22l1.22-.54c.12.29.25.51.41.68s.33.25.52.25c.14,0,.24-.03.31-.09.07-.06.1-.14.1-.24,0-.17-.06-.32-.19-.46-.13-.14-.36-.34-.69-.62l-.46-.38c-.34-.29-.6-.56-.8-.83s-.29-.6-.29-1c0-.34.09-.65.27-.91.18-.26.42-.47.72-.62s.62-.22.97-.22c.53,0,.97.14,1.32.43s.6.69.75,1.21l-1.18.53c-.04-.14-.11-.28-.19-.42-.08-.14-.18-.26-.29-.35-.11-.09-.23-.14-.37-.14-.12,0-.21.03-.28.1-.07.07-.1.15-.1.26,0,.14.08.29.24.45.16.16.38.36.65.58l.45.4c.18.15.36.32.54.5.18.18.32.37.43.58s.17.45.17.73c0,.37-.09.68-.27.94-.18.26-.42.46-.72.59-.3.13-.61.2-.95.2Z"/>
    <path class="cls-1" d="M93.79,104.91c-.48,0-.84-.07-1.1-.21-.26-.14-.43-.34-.53-.61-.1-.27-.15-.59-.15-.97v-3.45h-.62v-1.18h.62v-1.94h1.81v1.94h.9v1.18h-.9v3.28c0,.18.05.32.16.4.11.08.24.12.4.12.1,0,.18,0,.26-.02.08-.01.15-.02.22-.03v1.41c-.1.02-.25.03-.45.06-.21.02-.41.03-.63.03Z"/>
    <path class="cls-1" d="M95.66,97.4v-1.24h1.8v1.24h-1.8ZM95.67,104.84v-6.36h1.79v6.36h-1.79Z"/>
    <path class="cls-1" d="M98.57,104.84v-6.36h1.79v.64c.23-.24.48-.42.73-.55.25-.13.52-.2.8-.2.26,0,.48.06.65.19s.3.3.39.53c.09.22.13.48.13.76v4.98h-1.78v-4.73c0-.15-.03-.27-.08-.35-.05-.08-.15-.12-.29-.12-.07,0-.16.02-.26.06-.1.04-.2.1-.3.17v4.97h-1.79Z"/>
    <path class="cls-1" d="M104.34,106.38l-.11-.58c.19-.05.37-.14.53-.28s.25-.36.25-.68h-.95v-1.69h1.71v1.46c0,.54-.13.96-.36,1.27s-.59.47-1.07.51Z"/>
    <path class="cls-1" d="M110.49,104.84v-7.45h-1.34v-1.46h4.65v1.46h-1.33v7.45h-1.98Z"/>
    <path class="cls-1" d="M114,104.84l1.73-4.8-1.65-4.11h1.86l.98,2.41.79-2.41h1.64l-1.56,4.63,1.74,4.28h-1.85l-1.09-2.66-.96,2.66h-1.63Z"/>
    <path class="cls-1" d="M125.92,106.82v-10.89h1.47v10.89h-1.47Z"/>
    <path class="cls-1" d="M131.57,104.84v-8.91h1.39l1.83,4.29v-4.29h1.63v8.91h-1.33l-1.83-4.62v4.62h-1.68Z"/>
    <path class="cls-1" d="M139.74,104.95c-.46,0-.85-.08-1.18-.23s-.59-.38-.77-.69c-.18-.31-.27-.69-.27-1.15v-2.42c0-.46.09-.85.27-1.16.18-.31.44-.54.77-.69.33-.15.73-.23,1.18-.23s.85.08,1.18.23c.33.15.59.39.78.69.18.31.27.69.27,1.16v2.42c0,.46-.09.85-.27,1.15-.18.31-.44.54-.78.69-.33.15-.73.23-1.18.23ZM139.75,103.76c.12,0,.21-.03.28-.09.07-.06.11-.15.14-.26.03-.11.04-.25.04-.41v-2.66c0-.16-.01-.3-.04-.41-.03-.11-.07-.2-.14-.26-.07-.06-.16-.09-.28-.09s-.21.03-.27.09c-.07.06-.11.15-.14.26-.03.11-.04.25-.04.41v2.66c0,.16.01.3.04.41.03.11.08.2.14.26.07.06.16.09.27.09Z"/>
    <path class="cls-1" d="M143.78,104.84l-1.28-6.36h1.72l.53,4.06.48-4.06h1.72l-1.31,6.36h-1.86Z"/>
    <path class="cls-1" d="M147.08,104.84v-1.69h1.69v1.69h-1.69Z"/>
    <path class="cls-1" d="M155.11,104.97c-.58,0-1.05-.13-1.41-.38-.36-.25-.63-.6-.8-1.04-.17-.44-.25-.94-.25-1.51v-3.22c0-.58.07-1.1.2-1.55.14-.45.38-.81.73-1.07.35-.26.86-.39,1.52-.39.57,0,1.02.09,1.35.26.33.18.56.43.7.77.14.34.21.76.21,1.25,0,.03,0,.06,0,.08,0,.03,0,.05,0,.07h-1.73c0-.36-.03-.62-.08-.8-.05-.17-.21-.26-.46-.26-.17,0-.3.05-.38.15s-.14.28-.17.54-.04.62-.04,1.08v.79c.09-.15.23-.27.43-.36.2-.08.42-.13.67-.14.47-.01.84.09,1.13.32s.49.54.61.93c.12.39.19.83.19,1.31,0,.62-.07,1.17-.22,1.64-.15.47-.4.84-.75,1.11-.35.26-.84.4-1.46.4ZM155.13,103.62c.17,0,.29-.06.37-.17.08-.11.13-.28.15-.51s.04-.5.04-.83c0-.29,0-.55-.03-.76-.02-.21-.07-.38-.15-.5-.08-.12-.22-.18-.41-.18-.09,0-.17.02-.25.05-.08.04-.15.08-.21.14-.06.05-.1.11-.13.16v1.45c0,.2.02.38.05.56.03.18.1.32.19.42.09.11.22.16.38.16Z"/>
    <path class="cls-1" d="M158.35,102.18v-1.16h2.86v1.16h-2.86Z"/>
    <path class="cls-1" d="M162.27,104.84l1.94-7.51h-2.43v-1.4h4.22v1.27l-1.94,7.64h-1.79Z"/>
    <path class="cls-1" d="M167.14,106.38l-.11-.58c.19-.05.37-.14.53-.28s.25-.36.25-.68h-.95v-1.69h1.71v1.46c0,.54-.13.96-.36,1.27-.24.3-.59.47-1.07.51Z"/>
    <path class="cls-1" d="M172.27,104.84v-1.3l2.13-3.28c.16-.24.31-.48.46-.7.14-.23.26-.46.35-.69.09-.24.14-.48.14-.74s-.05-.45-.15-.57c-.1-.12-.24-.19-.42-.19-.2,0-.35.05-.46.17s-.19.26-.23.44c-.04.18-.06.39-.06.62v.44h-1.78v-.47c0-.53.08-1,.25-1.41.17-.41.44-.74.8-.98.37-.24.85-.36,1.44-.36.8,0,1.4.21,1.81.62.41.41.61.99.61,1.73,0,.36-.06.69-.17,1-.11.31-.26.61-.45.9-.19.29-.39.59-.6.91l-1.63,2.43h2.61v1.44h-4.65Z"/>
    <path class="cls-1" d="M180.5,105c-.54,0-.98-.11-1.34-.32-.36-.22-.63-.52-.81-.9-.18-.38-.28-.83-.28-1.33v-4.04c0-.52.09-.98.26-1.37.17-.39.44-.7.8-.92s.82-.33,1.38-.33,1.01.11,1.37.33c.36.22.62.53.79.92.17.39.26.85.26,1.37v4.04c0,.5-.09.94-.27,1.33-.18.38-.46.69-.81.9-.36.22-.8.32-1.33.32ZM180.5,103.37c.18,0,.3-.06.38-.17.08-.11.12-.25.14-.4.02-.15.03-.28.03-.39v-3.95c0-.12,0-.27-.02-.42-.01-.16-.06-.3-.14-.42s-.21-.18-.39-.18-.31.06-.39.18c-.08.12-.12.26-.14.42-.01.16-.02.3-.02.42v3.95c0,.11.01.24.03.39.02.15.07.28.15.4.08.11.2.17.37.17Z"/>
    <path class="cls-1" d="M183.98,104.84v-1.3l2.13-3.28c.16-.24.31-.48.46-.7.14-.23.26-.46.35-.69.09-.24.14-.48.14-.74s-.05-.45-.15-.57c-.1-.12-.24-.19-.42-.19-.2,0-.35.05-.46.17-.11.11-.19.26-.23.44-.04.18-.06.39-.06.62v.44h-1.78v-.47c0-.53.08-1,.25-1.41s.44-.74.8-.98c.37-.24.85-.36,1.44-.36.8,0,1.4.21,1.81.62.41.41.61.99.61,1.73,0,.36-.06.69-.17,1-.12.31-.27.61-.45.9-.19.29-.39.59-.6.91l-1.63,2.43h2.61v1.44h-4.65Z"/>
    <path class="cls-1" d="M191.98,105c-.65,0-1.15-.12-1.48-.35-.33-.23-.56-.56-.68-.97-.12-.42-.18-.9-.18-1.45h1.77c0,.34.02.61.05.83.04.21.1.37.2.46.1.09.24.13.42.13.19,0,.33-.08.41-.23s.13-.36.15-.63.03-.61.03-1c0-.29-.02-.55-.05-.78-.03-.23-.1-.41-.2-.54-.1-.14-.25-.2-.45-.2-.18,0-.33.07-.45.2-.12.13-.2.34-.25.62h-1.58l.17-5.14h4.16v1.54h-2.68l-.1,1.84c.07-.1.21-.19.42-.27.21-.08.42-.13.66-.15.45-.05.84.03,1.15.25.31.22.55.54.7.98.16.44.24.98.24,1.62,0,.48-.03.91-.09,1.31-.06.4-.17.74-.34,1.03-.17.29-.41.52-.74.68-.32.16-.75.24-1.27.24Z"/>
  </g>
</svg>